#N canvas 103 269 1351 686 10;
#X obj 8 7 load;
#X obj 53 7 load;
#X obj 98 7 load;
#X obj 143 7 load;
#X obj 8 50 load;
#X obj 53 50 load;
#X obj 98 50 load;
#X obj 143 50 load;
#X obj 8 95 sample-looper~;
#X obj 205 95 sample-looper~;
#X obj 8 271 sample-looper~;
#X obj 205 271 sample-looper~;
#X obj 403 96 sample-looper~;
#X obj 600 96 sample-looper~;
#X obj 403 272 sample-looper~;
#X obj 600 272 sample-looper~;
#X obj 54 451 vsl 40 170 0.01 1 0 0 empty empty empty 0 -9 0 10 -262144
-1 -1 0 1;
#X obj 1123 30 *~;
#X obj 1093 29 *~;
#X obj 1184 31 *~;
#X obj 1154 31 *~;
#X obj 1125 54 *~;
#X obj 1094 54 *~;
#X obj 1185 55 *~;
#X obj 1155 55 *~;
#X obj 209 7 bng 40 250 50 0 empty empty start 5 15 0 10 -4034 -1 -1
;
#X obj 255 7 bng 40 250 50 0 empty empty stop 7 15 0 10 -258113 -1
-1;
#X obj 9 451 vsl 40 170 0.01 1 0 0 empty empty empty 0 -9 0 10 -262144
-1 -1 0 1;
#X obj 144 451 vsl 40 170 0.01 1 0 0 empty empty empty 0 -9 0 10 -262144
-1 -1 0 1;
#X obj 99 451 vsl 40 170 0.01 1 0 0 empty empty empty 0 -9 0 10 -262144
-1 -1 0 1;
#X obj 234 451 vsl 40 170 0.01 1 0 0 empty empty empty 0 -9 0 10 -262144
-1 -1 0 1;
#X obj 189 451 vsl 40 170 0.01 1 0 0 empty empty empty 0 -9 0 10 -262144
-1 -1 0 1;
#X obj 324 451 vsl 40 170 0.01 1 0 0 empty empty empty 0 -9 0 10 -262144
-1 -1 0 1;
#X obj 279 451 vsl 40 170 0.01 1 0 0 empty empty empty 0 -9 0 10 -262144
-1 -1 0 1;
#X obj 1168 323 ctlin 1 1;
#X obj 1169 340 ctlin 2 1;
#X obj 1170 376 ctlin 4 1;
#X obj 1170 394 ctlin 5 1;
#X obj 1170 412 ctlin 6 1;
#X obj 1169 430 ctlin 7 1;
#X obj 1169 448 ctlin 8 1;
#X obj 1169 358 ctlin 3 1;
#X obj 1100 426 / 127;
#X obj 1100 404 / 127;
#X obj 1100 469 / 127;
#X obj 1100 447 / 127;
#X obj 1100 512 / 127;
#X obj 1100 490 / 127;
#X obj 1100 555 / 127;
#X obj 1100 533 / 127;
#X obj 1243 322 ctlin 7 1;
#X obj 1244 341 ctlin 7 2;
#X obj 1245 361 ctlin 7 3;
#X obj 1246 380 ctlin 7 4;
#X obj 1246 399 ctlin 7 5;
#X obj 1248 419 ctlin 7 6;
#X obj 1247 437 ctlin 7 7;
#X obj 1247 455 ctlin 7 8;
#X obj 1120 253 outlet~;
#X obj 1182 253 outlet~;
#X msg 1124 129 play start;
#X msg 1126 161 play stop;
#X obj 311 18 tgl 30 0 empty empty DAC 5 -7 0 10 -262144 -1 -1 0 1
;
#X obj 842 27 dac~;
#X obj 883 26 *~;
#X msg 828 49 \; pd dsp 1;
#X obj 343 18 bng 30 250 50 0 empty empty DSP 5 -7 0 10 -262144 -1
-1;
#X connect 0 0 8 0;
#X connect 1 0 9 0;
#X connect 2 0 12 0;
#X connect 3 0 13 0;
#X connect 4 0 10 0;
#X connect 5 0 11 0;
#X connect 6 0 14 0;
#X connect 7 0 15 0;
#X connect 8 0 18 0;
#X connect 9 0 17 0;
#X connect 10 0 22 0;
#X connect 11 0 21 0;
#X connect 12 0 20 0;
#X connect 13 0 19 0;
#X connect 14 0 24 0;
#X connect 15 0 23 0;
#X connect 16 0 17 1;
#X connect 17 0 58 0;
#X connect 17 0 59 0;
#X connect 17 0 64 0;
#X connect 18 0 58 0;
#X connect 18 0 59 0;
#X connect 18 0 64 0;
#X connect 19 0 58 0;
#X connect 19 0 59 0;
#X connect 19 0 64 0;
#X connect 20 0 58 0;
#X connect 20 0 59 0;
#X connect 20 0 64 0;
#X connect 21 0 58 0;
#X connect 21 0 59 0;
#X connect 21 0 64 0;
#X connect 22 0 58 0;
#X connect 22 0 59 0;
#X connect 22 0 64 0;
#X connect 23 0 58 0;
#X connect 23 0 59 0;
#X connect 23 0 64 0;
#X connect 24 0 58 0;
#X connect 24 0 59 0;
#X connect 24 0 64 0;
#X connect 25 0 60 0;
#X connect 26 0 61 0;
#X connect 27 0 18 1;
#X connect 28 0 22 1;
#X connect 29 0 19 1;
#X connect 30 0 21 1;
#X connect 31 0 22 1;
#X connect 32 0 23 1;
#X connect 33 0 24 1;
#X connect 34 0 43 0;
#X connect 35 0 42 0;
#X connect 36 0 44 0;
#X connect 37 0 47 0;
#X connect 38 0 46 0;
#X connect 39 0 49 0;
#X connect 40 0 48 0;
#X connect 41 0 45 0;
#X connect 42 0 16 0;
#X connect 43 0 27 0;
#X connect 44 0 28 0;
#X connect 45 0 29 0;
#X connect 46 0 30 0;
#X connect 47 0 31 0;
#X connect 48 0 32 0;
#X connect 49 0 33 0;
#X connect 50 0 43 0;
#X connect 51 0 42 0;
#X connect 52 0 45 0;
#X connect 53 0 44 0;
#X connect 54 0 47 0;
#X connect 55 0 46 0;
#X connect 56 0 49 0;
#X connect 57 0 48 0;
#X connect 60 0 8 0;
#X connect 60 0 9 0;
#X connect 60 0 12 0;
#X connect 60 0 13 0;
#X connect 60 0 10 0;
#X connect 60 0 11 0;
#X connect 60 0 14 0;
#X connect 60 0 15 0;
#X connect 61 0 8 0;
#X connect 61 0 9 0;
#X connect 61 0 12 0;
#X connect 61 0 13 0;
#X connect 61 0 10 0;
#X connect 61 0 11 0;
#X connect 61 0 14 0;
#X connect 61 0 15 0;
#X connect 62 0 64 1;
#X connect 64 0 63 0;
#X connect 64 0 63 1;
#X connect 66 0 65 0;
#X coords 0 -1 1 1 800 650 1 0 0;
